<?xml version="1.0" encoding="utf-8"?>
<!-- Generator: Adobe Illustrator 16.0.0, SVG Export Plug-In . SVG Version: 6.00 Build 0)  -->
<!DOCTYPE svg PUBLIC "-//W3C//DTD SVG 1.1//EN" "http://www.w3.org/Graphics/SVG/1.1/DTD/svg11.dtd">
<svg version="1.1" id="Layer_1" xmlns="http://www.w3.org/2000/svg" xmlns:xlink="http://www.w3.org/1999/xlink" x="0px" y="0px"
	 width="225px" height="50px" viewBox="0 0 225 50" style="enable-background:new 0 0 225 50;" xml:space="preserve">
<g>
	<g>
		<path style="fill:#005EA7;" d="M205.688,41.682c0,1.032,1.3,3.188,1.55,3.336l0.249,0.146c-0.149-0.109,0.017-0.36,0.007-0.843
			c-0.011-0.482-0.517-1.998-0.945-2.6c-0.427-0.602-0.808-1.146-0.661-1.756c0.147-0.611-0.2-1.764-0.469-2.291
			c-0.444-0.866-0.474-1.526-0.416-2.485c0.057-0.96,1.661-3.331,2.101-3.867c0.44-0.537,1.765-1.278,2.165-1.379
			c0.401-0.101,2.045-0.093,2.429-0.188c0.385-0.098,1.283-1.131,1.461-1.438c0.178-0.306,1.071-1.884,1.414-2.136
			c0.344-0.25,1.99,0.162,2.287,0.13c0.296-0.029,1.516-1.358,1.881-1.701c1.347-1.265,2.64-2.145,2.64-2.145
			s-0.828,0.178-1.427,0.581c-0.512,0.344-2.559,2.094-3.053,2.601c-0.385,0.394-1.041-0.564-2.05-0.507
			c-1.009,0.057-2.225,2.421-2.658,2.894c-0.435,0.472-1.566,0.882-2.146,0.965c-0.58,0.081-1.587,0.112-2.907,0.293
			c-1.32,0.179-3.623,3.304-3.623,3.304s0.541-1.553,0.679-3.213c0.139-1.659-0.311-3.114-0.542-3.646
			c-0.232-0.53-0.534-1.756-0.358-2.744c0.177-0.988,0.542-1.37,0.795-1.601c0.252-0.23,2.401-1.165,3.366-1.674
			c0.965-0.513,1.675-1.511,1.675-1.511c0.629-0.618,0.442-3.681,0.604-4.371c0.125-0.539,0.745-1.209,1.797-2.086
			c0.477-0.397-0.238-2.806-0.238-2.806s-0.031,1.394,0.005,1.978c0.036,0.586-0.495,0.835-1.052,1.176
			c-0.555,0.343-0.825,1.147-1.095,1.738c-0.271,0.589-0.168,2.188-0.338,3.16c-0.171,0.973-1.675,1.492-2.123,1.815
			c-0.448,0.325-2.026,1.621-2.986,1.943c-0.96,0.323-1.412,0.167-1.518,0.053c-0.106-0.115-0.398-1.551-0.563-2.361
			c-0.242-1.186-0.772-0.857-1.158-0.939c-0.386-0.081-1.62-1.091-2.104-1.654c-0.485-0.563-1.121-1.944-1.209-2.506
			c-0.088-0.562-0.27-3.675-0.27-3.675s-0.137,1.095-0.189,2.377c-0.052,1.283,0.07,2.795,0.565,3.647
			c0.496,0.853,2.015,2.06,2.983,2.556c0.969,0.498,0.858,1.066,0.851,1.69c-0.007,0.625-0.093,1.746,0.035,2.496
			c0.126,0.749,0.994,3.023,1.341,4.079c0.347,1.057,0.071,2.429,0.071,2.429c-0.184,0.586-0.321,0.623-0.321,0.623
			s-0.135-0.83-0.234-1.253c-0.099-0.423-0.482-0.283-0.482-0.283c-0.336-0.024-0.342-1.086-0.235-1.438
			c0.106-0.349,0.106-0.833-0.125-1.65c-0.229-0.815-2.712-1.538-3.298-1.702c-0.584-0.166-2.967-0.871-2.967-0.871
			s-0.781-1.347-1.035-1.911c-0.254-0.563-0.674-1.438-0.833-1.531c-0.158-0.092-1.22-0.388-1.624-0.481
			c-0.404-0.093-3.123,0.017-3.553-0.174c-0.431-0.188-1.6-2.392-1.6-2.392s0,0.37,0.453,1.478c0.453,1.108,1.096,1.438,1.458,1.553
			c0.36,0.113,1.969-0.07,2.845-0.079c0.875-0.008,1.488,0.501,1.987,1.074c0.499,0.572,1.111,2.437,1.111,2.437
			s-0.605-0.142-1.156-0.188c-0.551-0.046-1.515-0.162-2.512,0.061c-0.997,0.226-3.116,1.74-3.731,2.192
			c-0.616,0.45-2.609,3.392-2.609,3.392s0.741-0.627,1.083-1c0.34-0.373,1.112-1.029,1.442-1.359
			c0.329-0.331,2.375-2.029,2.737-2.217c0.363-0.189,1.769-0.662,1.769-0.662c0.514-0.144,2.136-0.056,2.596,0.035
			s1.889,0.659,2.276,0.824c0.386,0.166,2.008,0.839,2.195,0.944c0.188,0.104,1.001,1.186,1.472,1.858
			c0.472,0.675,0.604,1.539,0.562,1.896c-0.042,0.359,1.141,3.301,0.822,3.941c-0.319,0.644-0.422,3.096-0.271,3.943
			c0.15,0.848,0.886,3.938,0.621,4.504c-0.265,0.565-1.454,2.763-2.094,3.462c-0.658,0.719-4.107,0.524-4.853,0.996
			c-0.706,0.448-2.758,0.509-3.775,0.794c-1.423,0.402-2.55,0.173-2.55,0.173s3.998-0.911,4.465-0.936
			c0.468-0.024,0.916,0.106,1.074-0.168c0.159-0.275,1.576-0.298,1.773-0.35c0.161-0.042,0.493-0.099,0.79-0.039
			c0,0,0.4-0.224,0.414-0.233c0.037-0.043,0.206,0.044,0.446-0.304c0.401-0.578,0.366-0.312,0.857-0.467
			c0.491-0.154,1.121-0.184,1.263-0.366c0.143-0.181,0.225-0.589,0.277-1.095c0.052-0.504,0.052-0.763,0.142-1.424
			c0.091-0.659,1.322-3.683,1.322-3.683s0.195,2.045,0.208,2.33c0.045,0.982-0.142,0.813-0.505,1.762
			c-0.139,0.362-0.621,0.918-0.685,1.564c-0.065,0.646-0.35,0.725-0.582,0.894c-0.233,0.167-0.236,0.471-0.818,0.602
			c-0.583,0.13-0.841,0.284-1.126,0.478c-0.247,0.169-0.419,0.328-0.514,0.396c-0.414,0.129-0.787,0.337-0.79,0.34
			c0.026-0.197,0.016,0.068,0,0.112c-0.086,0.244-0.622,0.269-0.884,0.347c-0.261,0.077-0.452,0.579-0.565,0.799
			c-0.114,0.22-1.451,0.291-1.451,0.291s0.877,0.206,1.358,0.217c0.481,0.01,0.872-0.781,1.267-0.982
			c0.394-0.199,1.339-0.263,1.821-0.411c0.483-0.148,1.561,0.035,2.047,0.192c0.487,0.155,1.115,0.135,1.911,0.15
			c0.796,0.016,2.079-0.146,2.348-0.163c0.269-0.016,1.395,0.341,1.691,0.38c0.296,0.042,0.871-0.383,1.007-0.436
			s1.379,0.203,2.137,0.3s2.154-0.073,1.844-0.082c-0.466-0.014-1.515-0.172-1.515-0.172s0.881-0.424,1.69-0.197
			c0.71,0.201,1.999,0.354,2.601,0.4c0.602,0.045,4.348-0.146,4.348-0.146s-0.95-0.162-2.349-0.145
			c-1.575,0.021-2.635-0.228-2.635-0.228s-0.574-0.121-1.645-0.434c-1.076-0.313-2.086,0.308-2.384,0.356
			c-0.298,0.048-1.127-0.113-1.277-0.221c0,0-1.098-0.319-1.37-0.656c-0.272-0.336-0.498-0.55-0.731-0.964
			c-0.232-0.414-0.41-1.657-0.509-2.252c-0.099-0.596-0.76-0.488-0.928-0.723c-0.168-0.231,0.229-0.903,0.036-1.588
			c-0.195-0.686-0.991-2.08-0.94-2.313c0.053-0.232,0.421-0.418,0.868-1.047c0.53-0.75,0.614-0.996,0.47-1.266
			c-0.195-0.362-0.484-0.633-0.65-0.722c-0.167-0.091-1.464,0.176-1.464-0.397c0-0.317,0.504-1.883,0.388-2.154
			c-0.116-0.271-0.116-0.531-0.116-0.531l-0.244-0.73c-0.03-0.069-0.027-0.084-0.027-0.084l0.027,0.084
			c0.034,0.075,0.108,0.215,0.27,0.473c0.311,0.492,0.375,0.389,0.454,0.867c0.077,0.479,0.336,1.151,0.388,1.396
			c0.052,0.247,0.556,0.104,1.022,0.621c0,0,0.362,0.712,0.415,1.035c0.051,0.323,0,0.687-0.116,0.959
			c-0.117,0.271-0.803,1.344-0.842,1.694"/>
		<path style="fill:#005EA7;" d="M210.814,8.377c-0.165-0.602-0.099-2.205,0.447-3.003c0.373-0.55,0.216-0.954,0.402-1.176
			c0.082,0.276,0.34,0.719,0.335,1.38C211.989,6.714,211.204,7.889,210.814,8.377"/>
		<path style="fill:#005EA7;" d="M211.45,9.077c0.606-0.13,1.988-0.507,3.311-0.218c0.779,0.171,1.345,0.593,1.662,0.721
			c-0.276,0.063-0.753,0.048-1.474,0.087C213.707,9.733,212.142,9.34,211.45,9.077"/>
		<path style="fill:#005EA7;" d="M210.395,9.051c-0.467-0.305-1.709-1.184-1.99-2.105c-0.196-0.632-0.311-1.084-0.373-1.363
			c0.217,0.137,0.62,0.271,1.053,0.729C209.836,7.105,210.247,8.451,210.395,9.051"/>
		<path style="fill:#005EA7;" d="M212.515,8.464c-0.413,0.348-0.907,0.439-1.102,0.206c-0.197-0.233-0.021-0.704,0.393-1.052
			c0.412-0.347,0.906-0.438,1.102-0.204C213.104,7.646,212.928,8.117,212.515,8.464"/>
		<path style="fill:#005EA7;" d="M205.4,10.316c0.514,0.113,1.717-0.003,2.514,1.188c0.351,0.523,0.697,0.842,0.861,1.064
			c-0.236-0.049-0.626-0.141-1.175-0.295C206.798,12.038,205.766,10.79,205.4,10.316"/>
		<path style="fill:#005EA7;" d="M211.589,11.258c0.571-0.14,2.142-0.459,3.071-0.024c0.639,0.296,1.079,0.525,1.345,0.674
			c-0.262,0.069-0.816-0.217-1.439-0.104C213.649,11.962,212.17,11.566,211.589,11.258"/>
		<path style="fill:#005EA7;" d="M199.028,13.226c-0.437,0.052-0.813-0.092-0.841-0.322c-0.027-0.229,0.304-0.458,0.742-0.51
			c0.436-0.053,0.813,0.09,0.839,0.321C199.797,12.944,199.465,13.173,199.028,13.226"/>
		<path style="fill:#005EA7;" d="M196.875,11.529c0.397-0.522,1.537-1.908,2.657-2.214c0.769-0.209,1.315-0.335,1.652-0.402
			c-0.179,0.242-0.48,0.589-1.059,1.039C199.176,10.692,197.601,11.37,196.875,11.529"/>
		<path style="fill:#005EA7;" d="M196.307,9.363c-0.127-0.514-0.343-1.714-0.096-2.839c0.143-0.646,0.405-1.051,0.521-1.31
			c0.063,0.234,0.197,0.598,0.264,1.192C197.136,7.661,196.547,8.797,196.307,9.363"/>
		<path style="fill:#005EA7;" d="M198.46,7.64c-0.327,0.268-0.715,0.335-0.867,0.149c-0.151-0.185-0.009-0.552,0.319-0.819
			c0.327-0.269,0.716-0.336,0.867-0.151C198.931,7.005,198.788,7.371,198.46,7.64"/>
		<path style="fill:#005EA7;" d="M196.733,13.011c0.438,0.082,1.622,0.351,2.117,0.943c0.341,0.405,0.568,0.703,0.701,0.89
			c-0.202-0.034-0.533-0.102-1-0.218C197.871,14.448,197.539,13.566,196.733,13.011"/>
		<path style="fill:#005EA7;" d="M192.597,6.005c0.506,0.348,1.824,1.17,2.316,2.718c0.23,0.725,0.534,0.891,0.651,1.205
			c-0.234-0.155-0.618-0.425-1.151-0.829C193.635,8.494,192.863,6.683,192.597,6.005"/>
		<path style="fill:#005EA7;" d="M194.18,10.615c-0.366-0.246-0.551-0.614-0.411-0.82c0.139-0.207,0.548-0.177,0.916,0.07
			c0.367,0.245,0.55,0.613,0.412,0.819C194.957,10.893,194.546,10.861,194.18,10.615"/>
		<path style="fill:#005EA7;" d="M191.542,12.228c0.448-0.297,1.414-1.146,2.894-0.779c0.613,0.152,0.913-0.213,1.198-0.187
			c-0.204,0.142-0.549,0.363-1.051,0.661C193.839,12.351,192.16,12.276,191.542,12.228"/>
		<path style="fill:#005EA7;" d="M210.473,10.376c-0.379,0.152-1.416,0.519-1.976,0.221c-0.384-0.202-0.646-0.363-0.804-0.469
			c0.174-0.073,0.462-0.183,0.873-0.317C209.169,9.619,210.127,10.159,210.473,10.376"/>
		<path style="fill:#005EA7;" d="M183.163,15.622c-0.533-0.077-0.93-0.386-0.886-0.687c0.043-0.302,0.512-0.482,1.045-0.404
			c0.534,0.076,0.93,0.385,0.886,0.686C184.166,15.519,183.697,15.699,183.163,15.622"/>
		<path style="fill:#005EA7;" d="M208.366,9.444c-0.427-0.102-0.73-0.369-0.677-0.594c0.054-0.225,0.445-0.324,0.873-0.221
			c0.428,0.103,0.731,0.367,0.676,0.594C209.184,9.448,208.793,9.549,208.366,9.444"/>
		<path style="fill:#005EA7;" d="M212.47,16.194c-0.445-0.372-1.641-1.295-1.724-2.387c-0.061-0.789-0.105-1.125-0.114-1.412
			c0.209,0.168,0.628,0.355,0.995,0.881C212.22,14.122,212.439,15.574,212.47,16.194"/>
		<path style="fill:#005EA7;" d="M213.942,13.693c-0.393-0.023-1.451-0.131-1.855-0.616c-0.28-0.333-0.463-0.58-0.57-0.734
			c0.182,0.008,0.478,0.029,0.894,0.081C213.018,12.506,213.703,13.364,213.942,13.693"/>
		<path style="fill:#005EA7;" d="M212.82,14.817c-0.297-0.325-0.398-0.715-0.228-0.87c0.171-0.157,0.551-0.02,0.847,0.306
			c0.296,0.326,0.398,0.716,0.226,0.871C213.495,15.279,213.116,15.144,212.82,14.817"/>
		<path style="fill:#005EA7;" d="M196.789,9.629c0.344-0.421,1.323-1.539,2.258-1.767c0.642-0.159,1.099-0.25,1.38-0.299
			c-0.154,0.197-0.331,0.56-0.815,0.949C198.742,9.21,198.022,8.992,196.789,9.629"/>
		<path style="fill:#005EA7;" d="M208.245,13.693c-0.308,0.284-0.729,1.021-1.79,0.911c-0.433-0.043-0.731-0.131-0.915-0.179
			c0.141-0.134,0.375-0.343,0.717-0.621C206.762,13.406,207.845,13.601,208.245,13.693"/>
		<path style="fill:#005EA7;" d="M207.599,13.408c-0.431-0.087-0.743-0.342-0.697-0.569c0.046-0.227,0.434-0.341,0.865-0.251
			c0.431,0.087,0.743,0.342,0.696,0.569C208.417,13.384,208.031,13.498,207.599,13.408"/>
		<path style="fill:#005EA7;" d="M219.325,23.938c0.535,0.099,1.772-0.009,2.63,1.14c0.391,0.523,0.745,0.847,0.922,1.069
			c-0.246-0.042-0.65-0.125-1.222-0.265C220.821,25.666,219.718,24.414,219.325,23.938"/>
		<path style="fill:#005EA7;" d="M219.682,25.818c-0.255-0.338-0.308-0.729-0.117-0.873c0.191-0.145,0.553,0.012,0.808,0.35
			c0.255,0.338,0.307,0.729,0.116,0.872C220.299,26.312,219.938,26.155,219.682,25.818"/>
		<path style="fill:#005EA7;" d="M219.002,24.276c0.105,0.481,0.335,1.789-0.129,2.396c-0.317,0.419-0.562,0.699-0.718,0.866
			c-0.053-0.221-0.065-0.601-0.207-1.104C217.634,25.316,218.675,24.644,219.002,24.276"/>
		<path style="fill:#005EA7;" d="M219.904,22.479c-0.254-0.392-0.914-1.487-0.888-2.329c0.016-0.579,0.043-0.985,0.068-1.232
			c0.119,0.178,0.559,0.521,0.813,0.96C220.261,20.524,219.946,21.94,219.904,22.479"/>
		<path style="fill:#005EA7;" d="M219.248,22.744c-0.38,0.152-1.417,0.518-1.977,0.22c-0.384-0.201-0.647-0.362-0.805-0.468
			c0.175-0.072,0.463-0.183,0.874-0.317C217.943,21.989,218.901,22.528,219.248,22.744"/>
		<path style="fill:#005EA7;" d="M216.979,21.572c-0.429-0.104-0.731-0.369-0.677-0.595c0.054-0.226,0.444-0.323,0.873-0.221
			c0.427,0.102,0.73,0.368,0.676,0.593C217.797,21.576,217.406,21.674,216.979,21.572"/>
		<path style="fill:#005EA7;" d="M223.525,22.8c-0.43,0.094-0.819-0.013-0.868-0.239c-0.05-0.226,0.258-0.485,0.688-0.58
			c0.43-0.094,0.819,0.014,0.868,0.239C224.263,22.445,223.955,22.705,223.525,22.8"/>
		<path style="fill:#005EA7;" d="M221.024,22.391c0.324-0.604,1.399-1.954,2.357-2.609c0.658-0.448,1.286-0.443,1.619-0.535
			c-0.144,0.28-0.188,0.464-0.719,1.02C223.016,21.593,221.738,22.176,221.024,22.391"/>
		<path style="fill:#005EA7;" d="M221.186,22.852c0.499-0.028,1.472-0.291,2.255,0.842c0.302,0.438,0.733,0.342,0.875,0.524
			c-0.231,0.019-0.608,0.034-1.137,0.032C222.406,24.235,221.502,23.239,221.186,22.852"/>
		<path style="fill:#005EA7;" d="M183.207,12.396c0.395,0.284,1.493,0.398,1.665,1.918c0.063,0.567,0.241,0.963,0.289,1.209
			c-0.185-0.128-0.482-0.349-0.891-0.679C183.678,14.353,183.319,12.929,183.207,12.396"/>
		<path style="fill:#005EA7;" d="M186.312,14.506c-0.156,0.394-0.462,0.642-0.685,0.552c-0.223-0.087-0.277-0.478-0.122-0.872
			c0.156-0.393,0.463-0.642,0.685-0.552C186.413,13.721,186.467,14.112,186.312,14.506"/>
		<path style="fill:#005EA7;" d="M185.687,15.555c0.3-0.247,1.124-1.104,1.828-0.911c0.425,0.117,0.801-0.01,1.003-0.001
			c-0.136,0.115-0.366,0.3-0.705,0.55C187.312,15.55,186.125,15.564,185.687,15.555"/>
		<path style="fill:#005EA7;" d="M183.523,16.021c0.209-0.12,0.783-0.42,1.135-0.294c0.241,0.086,0.408,0.158,0.509,0.207
			c-0.096,0.057-0.316,0.064-0.483,0.258C184.212,16.736,183.743,16.118,183.523,16.021"/>
		<path style="fill:#005EA7;" d="M189.857,18.067c0.29-0.335,1.075-1.509,1.793-1.198c0.433,0.186,0.806,0.024,1.009,0.048
			c-0.131,0.158-0.353,0.408-0.681,0.742C191.493,18.144,190.299,18.104,189.857,18.067"/>
		<path style="fill:#005EA7;" d="M190.238,17.045c-0.081,0.371-0.315,0.636-0.525,0.591c-0.21-0.044-0.315-0.382-0.236-0.754
			c0.08-0.372,0.315-0.635,0.525-0.591C190.212,16.336,190.318,16.674,190.238,17.045"/>
		<path style="fill:#005EA7;" d="M188.002,16.286c0.32,0.163,1.261,0.154,1.291,1.184c0.01,0.383,0.134,0.64,0.155,0.805
			c-0.149-0.072-0.389-0.199-0.717-0.394C188.255,17.59,188.058,16.642,188.002,16.286"/>
		<path style="fill:#005EA7;" d="M183.248,20.182c0.375-0.278,0.764-1.181,2.275-1.036c0.563,0.053,0.989-0.021,1.24-0.015
			c-0.169,0.131-0.458,0.338-0.881,0.621C185.256,20.155,183.79,20.188,183.248,20.182"/>
		<path style="fill:#005EA7;" d="M185.28,18.096c0.239-0.019,0.888-0.046,1.152,0.217c0.182,0.182,0.302,0.317,0.374,0.403
			c-0.111,0.011-0.315-0.075-0.547,0.029C185.6,19.038,185.438,18.278,185.28,18.096"/>
		<path style="fill:#005EA7;" d="M187.036,19.048c0.319,0.164,1.262,0.155,1.29,1.184c0.01,0.384,0.133,0.64,0.155,0.806
			c-0.149-0.072-0.39-0.2-0.717-0.394C187.29,20.352,187.092,19.404,187.036,19.048"/>
		<path style="fill:#005EA7;" d="M186.914,20.439c-0.081,0.373-0.315,0.636-0.525,0.591c-0.209-0.045-0.315-0.382-0.235-0.755
			c0.08-0.371,0.315-0.637,0.525-0.59C186.888,19.73,186.993,20.067,186.914,20.439"/>
		<path style="fill:#005EA7;" d="M213.891,25.161c-0.506-0.122-1.884-0.504-2.559-1.188c-0.465-0.469-0.779-0.812-0.965-1.026
			c0.232,0.053,0.833,0.002,1.377,0.162C212.54,23.354,213.477,24.704,213.891,25.161"/>
		<path style="fill:#005EA7;" d="M213.161,23.452c-0.077-0.434,0.045-0.816,0.274-0.857c0.228-0.041,0.475,0.278,0.551,0.711
			c0.077,0.434-0.045,0.817-0.273,0.857C213.484,24.204,213.237,23.885,213.161,23.452"/>
		<path style="fill:#005EA7;" d="M215.766,22.657c-0.053,0.405-0.241,1.49-0.773,1.832c-0.365,0.238-0.634,0.388-0.803,0.473
			c0.021-0.187,0.066-0.492,0.149-0.917C214.468,23.427,215.407,22.854,215.766,22.657"/>
		<path style="fill:#005EA7;" d="M209.225,18.1c0.404,0.184,1.752,0.604,1.66,1.379c-0.056,0.469,0.203,0.78,0.24,0.982
			c-0.188-0.081-0.492-0.225-0.906-0.442C209.616,19.69,209.315,18.535,209.225,18.1"/>
		<path style="fill:#005EA7;" d="M209.685,17.894c0.281-0.224,0.662-1.085,1.611-0.687c0.354,0.148,0.638,0.144,0.798,0.192
			c-0.128,0.105-0.343,0.271-0.656,0.489C210.977,18.201,210.031,17.989,209.685,17.894"/>
		<path style="fill:#005EA7;" d="M211.437,18.364c0.342,0.165,0.543,0.457,0.449,0.649c-0.094,0.193-0.447,0.215-0.789,0.05
			c-0.342-0.167-0.543-0.457-0.45-0.65C210.741,18.221,211.095,18.197,211.437,18.364"/>
		<path style="fill:#005EA7;" d="M200.615,14.957c0.174,0.315,0.961,0.834,0.41,1.704c-0.205,0.323-0.246,0.604-0.321,0.754
			c-0.083-0.144-0.21-0.385-0.374-0.728C200.098,16.181,200.463,15.283,200.615,14.957"/>
		<path style="fill:#005EA7;" d="M202.228,16.553c-0.26,0.277-0.598,0.383-0.754,0.235c-0.157-0.146-0.073-0.491,0.188-0.769
			c0.26-0.277,0.598-0.381,0.754-0.234C202.572,15.932,202.488,16.275,202.228,16.553"/>
		<path style="fill:#005EA7;" d="M201.114,17.38c0.376-0.234,1.474-1.122,2.067-0.615c0.358,0.308,0.761,0.265,0.949,0.347
			c-0.172,0.111-0.458,0.284-0.871,0.508C202.652,17.937,201.524,17.546,201.114,17.38"/>
		<path style="fill:#005EA7;" d="M207.951,9.813c-0.564-0.066-1.835-0.304-2.731-1.025c-0.518-0.416-0.736-0.857-0.909-1.084
			c0.26,0.025,0.705-0.087,1.289,0.188C206.698,8.408,207.567,9.327,207.951,9.813"/>
		<path style="fill:#005EA7;" d="M206.438,5.562c0.345,0.276,1.546,1.02,1.262,1.748c-0.171,0.439,0.003,0.805-0.012,1.011
			c-0.163-0.125-0.42-0.34-0.768-0.655C206.42,7.197,206.417,6.003,206.438,5.562"/>
		<path style="fill:#005EA7;" d="M205.176,7.199c-0.272-0.344-0.347-0.74-0.166-0.884c0.182-0.145,0.551,0.02,0.824,0.365
			c0.272,0.344,0.347,0.74,0.165,0.884C205.818,7.708,205.45,7.545,205.176,7.199"/>
		<path style="fill:#005EA7;" d="M220.893,22.073c-0.203-0.354-0.709-1.336-0.49-1.934c0.148-0.409,0.272-0.691,0.355-0.863
			c0.097,0.163,0.246,0.434,0.437,0.823C221.466,20.673,221.062,21.701,220.893,22.073"/>
		<path style="fill:#005EA7;" d="M190.571,9.432c0.43-0.104,1.753-0.597,2.155,0.072c0.243,0.404,0.638,0.492,0.791,0.63
			c-0.198,0.052-0.525,0.125-0.987,0.205C191.854,10.448,190.909,9.72,190.571,9.432"/>
		<path style="fill:#005EA7;" d="M185.612,17.328c-0.513,0.174-1.763,0.501-2.847,0.304c-0.654-0.117-1.068-0.361-1.332-0.467
			c0.234-0.084,0.563-0.32,1.189-0.369C183.974,16.692,185.035,17.11,185.612,17.328"/>
		<path style="fill:#005EA7;" d="M186.533,13.829c0.14-0.607,0.962-1.987,1.822-2.43c0.589-0.306,0.644-0.736,0.913-0.843
			c-0.06,0.282-0.173,0.739-0.361,1.372C188.619,12.852,187.107,13.583,186.533,13.829"/>
		<path style="fill:#005EA7;" d="M185.821,10.688c0.089,0.303,0.596,0.787,0.099,1.655c-0.186,0.323-0.248,0.602-0.318,0.75
			c-0.043-0.139-0.108-0.369-0.186-0.701C185.307,11.903,185.673,11.013,185.821,10.688"/>
		<path style="fill:#005EA7;" d="M194.971,6.87c-0.329-0.242-1.186-0.932-1.228-1.563c-0.031-0.434-0.033-0.741-0.026-0.931
			c0.154,0.11,0.4,0.297,0.731,0.574C194.927,5.363,194.974,6.461,194.971,6.87"/>
		<path style="fill:#005EA7;" d="M193.887,21.085c-0.11-0.393-0.36-1.464-0.005-1.987c0.243-0.361,0.431-0.604,0.553-0.749
			c0.054,0.181,0.132,0.479,0.222,0.902C194.78,19.87,194.141,20.765,193.887,21.085"/>
		<path style="fill:#005EA7;" d="M215.383,29.42c-0.378,0.155-1.412,0.529-1.974,0.237c-0.387-0.199-0.651-0.357-0.809-0.462
			c0.174-0.074,0.461-0.186,0.871-0.325C214.072,28.675,215.036,29.205,215.383,29.42"/>
		<path style="fill:#005EA7;" d="M212.316,31.816c-0.198-0.392-0.191-0.796,0.015-0.9c0.207-0.104,0.535,0.13,0.733,0.521
			c0.199,0.394,0.192,0.795-0.015,0.901C212.843,32.443,212.515,32.208,212.316,31.816"/>
		<path style="fill:#005EA7;" d="M212.012,29.822c0.439,0.056,1.619,0.255,1.993,0.833c0.259,0.395,0.423,0.686,0.518,0.869
			c-0.204-0.021-0.298-0.111-0.76-0.2C213.091,31.186,212.226,30.212,212.012,29.822"/>
		<path style="fill:#005EA7;" d="M211.711,30.037c0.076,0.441,0.392,1.236-0.423,2.315c-0.314,0.418-0.192,0.776-0.322,0.965
			c-0.039-0.203-0.093-0.537-0.149-1.018C210.744,31.596,211.438,30.451,211.711,30.037"/>
		<path style="fill:#005EA7;" d="M206.449,28.783c0.167-0.409,0.539-1.772,1.317-1.708c0.471,0.04,0.772-0.23,0.973-0.274
			c-0.074,0.19-0.205,0.499-0.409,0.922C208.023,28.335,206.88,28.678,206.449,28.783"/>
		<path style="fill:#005EA7;" d="M206.484,27.693c0.042,0.378-0.096,0.704-0.31,0.728c-0.213,0.024-0.421-0.263-0.463-0.64
			c-0.042-0.378,0.096-0.704,0.31-0.729C206.234,27.03,206.442,27.317,206.484,27.693"/>
		<path style="fill:#005EA7;" d="M204.123,27.686c0.355,0.054,1.246-0.255,1.601,0.712c0.132,0.359,0.331,0.564,0.404,0.715
			c-0.165-0.023-0.433-0.067-0.806-0.146C204.778,28.842,204.289,28.006,204.123,27.686"/>
		<path style="fill:#005EA7;" d="M190.958,23.217c-0.008,0.012-1.012,1.394-1.558,1.354c-0.445-0.033-0.781,0.182-0.981,0.215
			c0.104-0.151,0.282-0.396,0.551-0.731C189.369,23.567,190.525,23.3,190.958,23.217"/>
		<path style="fill:#005EA7;" d="M181.604,31.85c0.104-0.482,0.27-1.879,0.88-2.583c0.418-0.487,0.885-0.739,1.075-0.938
			c-0.044,0.221-0.122,0.585-0.266,1.109C183.081,30.205,182.01,31.413,181.604,31.85"/>
		<path style="fill:#005EA7;" d="M182.069,28.696c-0.406,0.117-0.79,0.026-0.857-0.202c-0.067-0.23,0.208-0.512,0.615-0.631
			c0.406-0.119,0.791-0.028,0.857,0.202C182.751,28.295,182.476,28.577,182.069,28.696"/>
		<path style="fill:#005EA7;" d="M180.7,26.025c0.396,0.103,1.658,0.265,1.832,0.993c0.104,0.439,0.422,0.684,0.519,0.862
			c-0.185-0.043-0.483-0.124-0.9-0.258C181.542,27.42,180.917,26.409,180.7,26.025"/>
		<path style="fill:#005EA7;" d="M180.14,24.678c0.614-0.133,2.292-0.43,3.155,0.128c0.594,0.383,0.996,0.676,1.238,0.864
			c-0.282,0.066-0.791-0.299-1.455-0.196C182.106,25.612,180.67,25.072,180.14,24.678"/>
		<path style="fill:#005EA7;" d="M186.09,30.685c-0.271-0.445-1.172-1.793-0.955-2.656c0.179-0.71,0.034-1.125,0.055-1.408
			c0.127,0.203,0.328,0.546,0.599,1.045C186.177,28.405,186.126,30.071,186.09,30.685"/>
		<path style="fill:#005EA7;" d="M188.155,27.095c-0.407,0.089-1.513,0.285-2.005-0.114c-0.34-0.272-0.566-0.481-0.7-0.616
			c0.188-0.044,0.497-0.107,0.932-0.175C187.019,26.1,187.857,26.813,188.155,27.095"/>
		<path style="fill:#005EA7;" d="M186.568,28.17c-0.224-0.247-0.301-0.542-0.171-0.659c0.129-0.119,0.416-0.014,0.64,0.231
			c0.224,0.246,0.301,0.541,0.171,0.66C187.079,28.52,186.792,28.416,186.568,28.17"/>
		<path style="fill:#005EA7;" d="M183.867,23.783c0.207,0.319,0.228,0.672,0.048,0.788c-0.181,0.118-0.494-0.046-0.7-0.366
			c-0.207-0.319-0.228-0.672-0.048-0.788C183.347,23.3,183.661,23.464,183.867,23.783"/>
		<path style="fill:#005EA7;" d="M184.648,25.366c-0.009-0.31-0.36-0.873,0.303-1.619c0.246-0.277,0.369-0.533,0.47-0.663
			c0.006,0.142,0.011,0.377,0.003,0.713C185.41,24.29,184.861,25.08,184.648,25.366"/>
		<path style="fill:#005EA7;" d="M182.396,25.906c0.202-0.088,0.758-0.309,1.112-0.192c0.243,0.081,0.411,0.146,0.513,0.188
			c-0.092,0.043,0.151,0.061-0.006,0.21C183.57,26.534,182.618,25.993,182.396,25.906"/>
		<path style="fill:#005EA7;" d="M190.824,24.323c-0.005-0.38,0.165-0.69,0.379-0.693c0.216-0.004,0.394,0.303,0.399,0.683
			c-0.001-0.035-0.159,0.69-0.379,0.693C191.008,25.009,190.83,24.704,190.824,24.323"/>
		<path style="fill:#005EA7;" d="M193.196,24.393c-0.295-0.122-1.02-0.03-1.351-0.979c-0.123-0.352-0.295-0.579-0.361-0.729
			c0.137,0.054,0.361,0.15,0.672,0.301C192.609,23.211,193.046,24.069,193.196,24.393"/>
		<path style="fill:#005EA7;" d="M188.484,15.659c0.327-0.468,1.265-1.71,2.205-1.923c0.646-0.15,1.106-0.23,1.389-0.271
			c-0.147,0.22-0.261,0.672-0.779,1.054C190.228,15.31,189.706,14.99,188.484,15.659"/>
		<path style="fill:#005EA7;" d="M181.551,19.305c0.228-0.22,0.42-0.893,1.421-0.854c0.373,0.015,0.647-0.06,0.812-0.065
			c-0.103,0.104-0.278,0.268-0.536,0.489C182.866,19.197,181.907,19.285,181.551,19.305"/>
		<path style="fill:#005EA7;" d="M207.84,25.163c0.642-0.189,2.392-0.632,3.246-0.057c0.589,0.394,0.986,0.698,1.224,0.896
			c-0.295,0.095-0.797-0.286-1.488-0.127C209.809,26.094,208.363,25.574,207.84,25.163"/>
		<path style="fill:#005EA7;" d="M215.407,26.585c0.408,0.348,1.49,1.342,1.719,2.277c0.16,0.641,0.251,1.098,0.301,1.378
			c-0.19-0.158-0.51-0.395-0.918-0.828C215.697,28.549,216.031,27.82,215.407,26.585"/>
		<path style="fill:#005EA7;" d="M188.645,7.303c0.588-0.081,1.923-0.289,3.069,0.301c0.629,0.322,1.007,0.651,1.253,0.832
			c-0.27,0.043-0.786-0.309-1.423-0.258C190.609,8.242,189.184,7.681,188.645,7.303"/>
		<path style="fill:#005EA7;" d="M191.179,6.524c-0.231-0.377-0.246-0.787-0.034-0.917c0.212-0.131,0.572,0.067,0.804,0.444
			c0.23,0.375,0.245,0.786,0.033,0.918C191.77,7.1,191.41,6.899,191.179,6.524"/>
		<path style="fill:#005EA7;" d="M180,15.626c0.318-0.092,1.183-0.302,1.608-0.016c0.294,0.194,0.491,0.345,0.61,0.443
			c-0.146,0.045-0.396-0.144-0.738-0.068C180.979,16.089,180.261,15.828,180,15.626"/>
		<path style="fill:#005EA7;" d="M192.186,15.603c0.457-0.18,1.313-0.655,2.66-0.525c0.64,0.063,1.081,0.144,1.353,0.19
			c-0.208,0.085-0.56,0.218-1.069,0.392C194.375,15.906,192.775,15.694,192.186,15.603"/>
		<path style="fill:#005EA7;" d="M195.297,21.029c-0.338,0.171-0.692,0.155-0.789-0.037c-0.097-0.191,0.1-0.485,0.439-0.656
			c0.338-0.172,0.692-0.155,0.79,0.035C195.833,20.563,195.637,20.857,195.297,21.029"/>
		<path style="fill:#005EA7;" d="M183.093,14.105c-0.481-0.119-1.567-0.789-1.908-1.479c-0.236-0.472-0.578-0.521-0.659-0.736
			c0.224,0.052,0.585,0.146,1.087,0.304C182.342,12.436,182.906,13.646,183.093,14.105"/>
		<path style="fill:#005EA7;" d="M214.176,23.231c-0.028-0.407-0.058-1.506,0.396-1.949c0.31-0.304,0.545-0.503,0.692-0.621
			c0.017,0.188,0.033,0.496,0.036,0.928C215.296,22.222,214.489,22.968,214.176,23.231"/>
		<path style="fill:#005EA7;" d="M215.114,17.254c0.506,0.219,1.845,0.861,2.094,1.681c0.172,0.56,0.269,0.967,0.318,1.216
			c-0.236-0.097-0.477-0.369-0.994-0.642C215.777,19.112,215.236,17.791,215.114,17.254"/>
		<path style="fill:#005EA7;" d="M217.971,18.935c-0.031-0.407-0.068-1.512,0.385-1.958c0.31-0.306,0.542-0.511,0.69-0.629
			c0.018,0.189,0.037,0.498,0.042,0.933C219.089,17.913,218.284,18.67,217.971,18.935"/>
		<path style="fill:#005EA7;" d="M216.803,17.671c-0.091-0.414,0.025-0.791,0.259-0.841c0.234-0.052,0.496,0.242,0.586,0.655
			c0.09,0.415-0.026,0.791-0.259,0.842C217.156,18.379,216.893,18.085,216.803,17.671"/>
		<path style="fill:#005EA7;" d="M220.253,29.404c-0.301-0.37-1.222-1.34-1.086-2.067c0.091-0.5,0.329-0.905,0.391-1.118
			c0.142,0.168,0.178,0.512,0.472,0.922C220.453,27.746,220.374,28.943,220.253,29.404"/>
		<path style="fill:#005EA7;" d="M192.56,2.956c0.058,0.294,0.451,0.745-0.002,1.627c-0.169,0.328-0.235,0.604-0.301,0.755
			c-0.028-0.134-0.07-0.358-0.117-0.682C192.075,4.18,192.422,3.284,192.56,2.956"/>
		<path style="fill:#005EA7;" d="M221.613,17.218c0.158,0.323,0.917,0.88,0.325,1.722c-0.221,0.313-0.275,0.593-0.357,0.738
			c-0.076-0.147-0.192-0.393-0.337-0.745C221.035,18.414,221.444,17.538,221.613,17.218"/>
		<path style="fill:#005EA7;" d="M216.604,10.636c-0.338,0.121-0.573,0.825-1.746,0.131c-0.33-0.194-0.559-0.34-0.694-0.438
			c0.155-0.06,0.413-0.146,0.779-0.253C215.478,9.928,216.306,10.434,216.604,10.636"/>
		<path style="fill:#005EA7;" d="M216.339,14.214c-0.403-0.096-1.171,0.13-2.069-0.926c-0.334-0.393-0.653-0.631-0.812-0.797
			c0.186,0.042,0.492,0.118,0.926,0.243C215.021,12.927,215.991,13.859,216.339,14.214"/>
		<path style="fill:#005EA7;" d="M216.02,12.976c-0.44-0.011-0.791-0.208-0.785-0.439c0.006-0.231,0.368-0.41,0.808-0.397
			c0.44,0.012,0.792,0.208,0.785,0.44C216.821,12.81,216.459,12.988,216.02,12.976"/>
		<path style="fill:#005EA7;" d="M195.586,19.875c0.637-0.184,2.377-0.604,3.232-0.031c0.588,0.393,0.987,0.694,1.225,0.892
			c-0.293,0.089-0.796-0.288-1.483-0.138C197.554,20.805,196.109,20.283,195.586,19.875"/>
		<path style="fill:#005EA7;" d="M198.639,18.24c0.31,0.183,1.251,0.229,1.22,1.257c-0.011,0.383,0.098,0.646,0.11,0.813
			c-0.146-0.081-0.377-0.223-0.694-0.435C198.818,19.559,198.674,18.6,198.639,18.24"/>
		<path style="fill:#005EA7;" d="M184.193,21.781c0.611-0.129,2.208,0.034,2.971,0.627c0.527,0.405,0.939,0.272,1.148,0.473
			c-0.28,0.063-0.743,0.155-1.396,0.251C185.959,23.259,184.658,22.198,184.193,21.781"/>
		<path style="fill:#005EA7;" d="M208.559,20.805c0.663-0.028,2.452-0.03,3.15,0.727c0.481,0.517,0.797,0.906,0.982,1.152
			c-0.306,0.019-0.707-0.467-1.41-0.481C210.255,22.169,208.971,21.324,208.559,20.805"/>
		<path style="fill:#005EA7;" d="M213.077,19.566c0.158,0.323,0.918,0.88,0.325,1.721c-0.22,0.313-0.276,0.594-0.357,0.738
			c-0.076-0.146-0.192-0.394-0.338-0.746C212.5,20.763,212.909,19.885,213.077,19.566"/>
		<path style="fill:#005EA7;" d="M213.776,18.509c0.358,0.029,1.225-0.342,1.646,0.598c0.157,0.349,0.369,0.54,0.453,0.685
			c-0.166-0.01-0.437-0.034-0.814-0.09C214.511,19.614,213.964,18.816,213.776,18.509"/>
		<path style="fill:#005EA7;" d="M203.186,5.135c0.505-0.225,1.838-0.933,2.809-0.732c0.668,0.136,1.206,0.391,1.49,0.471
			c-0.23,0.106-0.693,0.102-1.253,0.316C205.406,5.495,203.802,5.294,203.186,5.135"/>
		<path style="fill:#005EA7;" d="M201.731,5.153c-0.471-0.261-1.518-0.877-2.145-1.887c-0.351-0.563-0.465-1.025-0.569-1.291
			c0.218,0.116,0.587,0.26,1.069,0.627C200.805,3.15,201.495,4.582,201.731,5.153"/>
		<path style="fill:#005EA7;" d="M203.488,4.57c-0.363,0.398-0.84,0.555-1.064,0.35c-0.227-0.205-0.114-0.695,0.25-1.094
			c0.363-0.398,0.84-0.555,1.064-0.35C203.963,3.682,203.852,4.171,203.488,4.57"/>
		<path style="fill:#005EA7;" d="M202.051,6.417c-0.356,0.2-0.937,0.592-1.928,0.479c-0.433-0.048-0.691-0.273-0.86-0.356
			c0.163-0.096,0.434-0.243,0.823-0.432C200.658,5.841,201.679,6.248,202.051,6.417"/>
		<path style="fill:#005EA7;" d="M200.656,5.847c-0.409-0.109-0.689-0.386-0.627-0.617s0.443-0.331,0.853-0.22
			c0.408,0.109,0.69,0.386,0.627,0.617C201.447,5.857,201.065,5.956,200.656,5.847"/>
		<path style="fill:#005EA7;" d="M201.001,8.568c-0.389-0.372-0.534-0.854-0.323-1.073c0.211-0.221,0.698-0.096,1.087,0.276
			c0.389,0.374,0.533,0.854,0.322,1.074C201.876,9.067,201.391,8.942,201.001,8.568"/>
		<path style="fill:#005EA7;" d="M203.304,6.074c0.094,0.443,0.694,1.113,0.037,2.474c-0.245,0.506-0.335,0.93-0.431,1.161
			c-0.047-0.203-0.114-0.544-0.192-1.032C202.608,7.954,203.106,6.576,203.304,6.074"/>
		<path style="fill:#005EA7;" d="M204.212,9.488c-0.355,0.23-0.749,0.253-0.879,0.053c-0.13-0.201,0.053-0.551,0.408-0.78
			s0.749-0.253,0.879-0.053C204.75,8.909,204.568,9.26,204.212,9.488"/>
		<path style="fill:#005EA7;" d="M202.281,1.739c0.158,0.322,0.918,0.879,0.326,1.721c-0.221,0.313-0.276,0.593-0.358,0.738
			c-0.076-0.148-0.192-0.394-0.338-0.746C201.704,2.936,202.113,2.058,202.281,1.739"/>
		<path style="fill:#005EA7;" d="M202.572,13.129c0.49-0.202,1.781-0.834,2.728-0.644c0.652,0.128,1.177,0.364,1.453,0.438
			c-0.224,0.096-0.672,0.088-1.216,0.279C204.735,13.475,203.172,13.278,202.572,13.129"/>
		<path style="fill:#005EA7;" d="M202.073,13.879c-0.375-0.294-1.366-1.13-1.506-1.922c-0.099-0.546-0.147-0.933-0.169-1.171
			c0.175,0.133,0.457,0.358,0.84,0.696C201.794,11.984,202.012,13.364,202.073,13.879"/>
		<path style="fill:#005EA7;" d="M203.632,12.31c-0.303,0.332-0.702,0.464-0.89,0.293c-0.188-0.172-0.094-0.582,0.209-0.914
			c0.304-0.333,0.701-0.463,0.89-0.291C204.029,11.567,203.936,11.977,203.632,12.31"/>
		<path style="fill:#005EA7;" d="M201.996,10.05c0.132,0.269,0.767,0.734,0.271,1.438c-0.184,0.261-0.229,0.495-0.298,0.617
			c-0.064-0.124-0.161-0.33-0.283-0.624C201.513,11.05,201.855,10.314,201.996,10.05"/>
		<path style="fill:#005EA7;" d="M206.132,18.019c0.026-0.445-0.054-1.81,0.662-2.239c0.432-0.26,0.62-0.673,0.786-0.833
			c-0.009,0.206-0.033,0.544-0.087,1.021C207.402,16.668,206.485,17.662,206.132,18.019"/>
		<path style="fill:#005EA7;" d="M205.626,17.024c0.215,0.313,0.247,0.665,0.07,0.787c-0.176,0.123-0.495-0.033-0.71-0.345
			c-0.215-0.313-0.247-0.666-0.07-0.788C205.093,16.557,205.411,16.712,205.626,17.024"/>
		<path style="fill:#005EA7;" d="M203.542,18.13c0.337-0.119,0.978-0.811,1.746-0.127c0.286,0.255,0.557,0.343,0.693,0.439
			c-0.156,0.061-0.414,0.146-0.78,0.252C204.665,18.841,203.838,18.335,203.542,18.13"/>
		<path style="fill:#005EA7;" d="M194.871,14.479c-0.367-0.246-0.551-0.613-0.412-0.819c0.139-0.208,0.549-0.176,0.915,0.07
			c0.367,0.246,0.551,0.612,0.412,0.82C195.647,14.758,195.237,14.728,194.871,14.479"/>
		<path style="fill:#005EA7;" d="M196.032,15.711c0.015,0.359,0.486,1.174-0.395,1.707c-0.328,0.198-0.491,0.431-0.625,0.531
			c-0.01-0.166-0.018-0.438-0.01-0.818C195.022,16.574,195.75,15.935,196.032,15.711"/>
		<path style="fill:#005EA7;" d="M192.165,20.015c-0.276,0.23-0.635,1.103-1.594,0.728c-0.357-0.14-0.642-0.126-0.803-0.171
			c0.125-0.109,0.337-0.281,0.644-0.507C190.865,19.74,191.815,19.928,192.165,20.015"/>
		<path style="fill:#005EA7;" d="M208.732,23.115c-0.415-0.236-1.382-0.232-1.949-1.707c-0.21-0.55-0.472-0.918-0.581-1.155
			c0.192,0.106,0.506,0.29,0.946,0.571C207.791,21.245,208.49,22.607,208.732,23.115"/>
		<path style="fill:#005EA7;" d="M205.711,21.975c-0.017-0.381,0.145-0.695,0.359-0.704c0.215-0.01,0.401,0.29,0.418,0.67
			c0.017,0.379-0.144,0.695-0.358,0.702C205.916,22.652,205.728,22.353,205.711,21.975"/>
		<path style="fill:#005EA7;" d="M205.878,20.571c-0.143,0.363-0.451,1.521-1.165,1.684c-0.431,0.097-0.7,0.388-0.882,0.477
			c0.063-0.168,0.176-0.443,0.353-0.827C204.45,21.345,205.487,20.771,205.878,20.571"/>
	</g>
	<g>
		<g>
			<rect x="8.277" y="0.839" style="fill:#FFFFFF;" width="48.932" height="49.161"/>
			<path style="fill:#FFFFFF;" d="M32.708,25.253"/>
		</g>
		<g>
			<rect x="9.251" y="1.813" style="fill:#005CA8;" width="46.984" height="46.947"/>
			<path style="fill:#005CA8;" d="M32.744,25.287"/>
		</g>
		<g>
			<path style="fill:#009AD8;" d="M13.511,19.921c-7.596,0.76-11.41,2-11.41,2s-0.117,1.474-0.441,3.485
				c0,0,5.096-1.152,8.149-1.461l3.103-1.405L13.511,19.921z"/>
			<path style="fill:#FFFFFF;" d="M7.683,27.397C3.304,28.16,0.952,28.78,0.952,28.78l-0.008-0.006
				c0.396-1.802,0.716-3.368,0.716-3.368S6.75,24.25,9.802,23.94l-2.127,3.452L7.683,27.397z"/>
		</g>
		<path style="fill:#D41317;" d="M7.682,27.397v3.526c0,0-5.931,1.141-7.682,1.664c0,0,0.537-1.706,0.95-3.808
			C0.95,28.78,3.303,28.16,7.682,27.397z"/>
		<path style="fill:#FFFFFF;" d="M13.089,25.254c0,0-5.19-0.177-5.155-0.92c0.014-0.277,0.068-0.302,0.229-0.448
			c0.352-0.323,2.208-1.141,5.701-2.525L13.089,25.254z"/>
		<ellipse style="fill:#FFDC00;" cx="32.737" cy="25.245" rx="20.626" ry="20.61"/>
		<path style="fill:#FFFFFF;" d="M7.499,27.546c0.123,0.556,0.782,0.695,3.111,0.9c2.327,0.21,9.921,0.355,19.096-0.254
			c10.745-0.718,22.659-3.851,31.98-6.841c-0.236,0.617-0.817,2.062-1.041,2.726c-0.148,0.439-0.262,0.846-0.39,1.263
			c-9.162,2.893-20.607,5.827-30.967,6.519c-9.173,0.609-16.767,0.131-19.096-0.077c-2.328-0.209-2.988-0.348-3.11-0.901
			L7.499,27.546z"/>
		<path style="fill:#009AD8;" d="M7.916,24.212c0.122,0.555,0.782,0.694,3.11,0.903c2.328,0.206,9.922,0.02,19.096-0.591
			c11.339-0.756,23.978-4.201,33.5-7.334l-0.002-0.006l-0.011,0.008c-0.635,1.122-1.265,2.487-1.923,4.159
			c-9.321,2.99-21.235,6.123-31.98,6.841c-9.174,0.609-16.769,0.464-19.096,0.254c-2.329-0.205-2.988-0.345-3.111-0.9L7.916,24.212z
			"/>
		<path style="fill:#D41317;" d="M6.665,34.212c0.122,0.557,0.782,0.695,3.111,0.903c2.329,0.209,9.921,1.021,19.096,0.407
			c10.135-0.674,21.308-3.497,30.365-6.327l-0.001,0.008c0.179-0.84,0.527-2.354,1.02-3.863c-9.162,2.893-20.607,5.827-30.967,6.519
			c-9.173,0.609-16.767,0.131-19.096-0.077c-2.328-0.209-2.988-0.348-3.11-0.901L6.665,34.212z"/>
		<ellipse style="fill:#FFDC00;" cx="32.739" cy="25.342" rx="18.917" ry="18.902"/>
		<path style="fill:#005CA8;" d="M27.042,10.531c-0.357,5.6-0.622,16.249,0,27.097L21.69,38.95c-0.37-6.195-0.847-16.108,0-26.589
			L27.042,10.531z"/>
		<path style="fill:#005CA8;" d="M48.144,28.897c0,0-3.25,7.853-16.36,13.868l-0.923-5.642c7.241-3.42,10.849-8.392,10.849-8.392
			c-2.284-1.147-7.692-2.184-11.144-2.128l-0.018-4.837c5.621-2.098,8.261-6.003,8.261-6.003c-1.654-0.918-6.229-1.238-9.209-0.411
			l0.061-5.275c5.006-0.828,12.132,0.542,13.894,1.618c0,0,1.049,5.23,1.032,5.343c0,0-2.306,3.25-5.353,5.151
			c0,0,4.555,0.614,8.114,2.579C47.348,24.77,48.083,28.873,48.144,28.897z"/>
	</g>
	<g>
		<path style="fill:#005CA8;" d="M70.386,31.158V18.791h6.448c3.036,0,5.455,0.649,5.455,3.108c0,1.27-0.9,2.199-1.763,2.696
			c1.462,0.344,2.249,1.495,2.249,2.836c0,2.767-2.305,3.727-5.81,3.727H70.386z M74.81,21.677v2.061h1.836
			c0.881,0,1.519-0.36,1.519-1.082c0-0.96-0.863-0.979-1.8-0.979H74.81z M74.81,25.989v2.284h1.93c1.087,0,1.911-0.207,1.911-1.135
			c0-1.083-1.03-1.149-2.436-1.149H74.81z"/>
		<path style="fill:#005CA8;" d="M97.879,24.906c0,4.21-3.093,6.577-7.085,6.577c-4.235,0-7.066-2.404-7.066-6.611
			c0-3.883,2.869-6.408,7.066-6.408C95.611,18.464,97.879,21.644,97.879,24.906z M88.152,24.906c0,1.581,0.525,3.555,2.642,3.555
			c1.912,0,2.662-1.512,2.662-3.555c0-1.685-0.75-3.47-2.699-3.419C88.751,21.487,88.152,23.343,88.152,24.906z"/>
		<path style="fill:#005CA8;" d="M99.301,18.791h4.423v7.403c0,1.221,0.262,2.267,2.08,2.267c1.593,0,2.063-0.928,2.063-2.267
			v-7.403h4.423v6.991c0,3.969-2.005,5.701-6.485,5.701c-4.178,0-6.503-1.46-6.503-5.719V18.791z"/>
		<path style="fill:#005CA8;" d="M122.709,23.514c-0.131-1.288-1.013-2.026-2.4-2.026c-1.556,0-2.492,1.22-2.492,3.605
			c0,1.739,0.412,3.368,2.661,3.368c1.425,0,2.099-0.908,2.268-2.095h4.255c-0.395,3.196-2.887,5.117-6.448,5.117
			c-4.461,0-7.161-2.504-7.161-6.526c0-4.002,2.962-6.493,6.729-6.493c4.124,0,6.43,1.874,6.786,5.05H122.709z"/>
		<path style="fill:#005CA8;" d="M128.236,31.158V18.791h4.423v4.175h4.179v-4.175h4.423v12.367h-4.423v-4.792h-4.179v4.792H128.236
			z"/>
		<path style="fill:#005CA8;" d="M143.359,31.158V18.791h11.002v2.886h-6.579v1.77h5.567v2.886h-5.567v1.941h6.841v2.885H143.359z"
			/>
		<path style="fill:#005CA8;" d="M163.188,22.381c-0.075-0.43-0.319-0.686-0.638-0.841c-0.318-0.156-0.712-0.227-1.143-0.227
			c-0.975,0-1.406,0.261-1.406,0.706c0,1.854,7.76,0.704,7.76,5.204c0,2.87-2.606,4.26-6.317,4.26c-3.56,0-5.886-1.905-5.979-4.139
			h4.237c0.093,0.447,0.355,0.774,0.73,0.98c0.355,0.206,0.824,0.31,1.255,0.31c1.106,0,1.837-0.328,1.837-0.913
			c0-1.87-7.759-0.583-7.759-5.307c0-2.628,2.473-3.951,5.848-3.951c3.749,0,5.454,1.753,5.772,3.917H163.188z"/>
		<path style="fill:#005CA8;" d="M70.143,48.339V35.97h5.38c3.949,0,6.4,1.856,6.4,5.927c0,4.657-2.571,6.442-6.503,6.442H70.143z
			 M74.161,45.453h0.851c1.873,0,2.894-0.995,2.894-3.334c0-2.576-0.833-3.264-2.979-3.264h-0.765V45.453z"/>
		<path style="fill:#005CA8;" d="M83.231,35.97h4.018v7.404c0,1.221,0.238,2.267,1.891,2.267c1.446,0,1.871-0.928,1.871-2.267V35.97
			h4.019v6.992c0,3.969-1.822,5.702-5.889,5.702c-3.797,0-5.908-1.461-5.908-5.72V35.97z"/>
		<path style="fill:#005CA8;" d="M106.466,44.027v4.312h-4.017V35.97h5.788c4.086,0,5.43,1.115,5.43,3.521
			c0,1.426-0.63,2.628-2.06,3.023c1.293,0.479,2.077,0.79,2.077,3.281c0,1.615-0.051,2.166,0.426,2.166v0.377h-4.069
			c-0.103-0.274-0.205-1.065-0.205-2.165c0-1.616-0.271-2.146-2.145-2.146H106.466z M106.466,41.314h1.583
			c1.242,0,1.907-0.313,1.907-1.17c0-0.876-0.682-1.289-1.618-1.289h-1.873V41.314z"/>
		<path style="fill:#005CA8;" d="M115.588,48.339V35.97h4.018v4.175h3.796V35.97h4.018v12.369h-4.018v-4.794h-3.796v4.794H115.588z"
			/>
		<path style="fill:#005CA8;" d="M141.869,42.084c0,4.211-2.808,6.58-6.433,6.58c-3.848,0-6.418-2.403-6.418-6.613
			c0-3.882,2.604-6.407,6.418-6.407C139.811,35.644,141.869,38.822,141.869,42.084z M134.09,32.295h2.792l2.077,2.545h-2.519
			l-0.954-1.31l-0.953,1.31h-2.503L134.09,32.295z M133.035,42.084c0,1.584,0.477,3.557,2.401,3.557
			c1.736,0,2.417-1.513,2.417-3.557c0-1.681-0.681-3.468-2.452-3.417C133.58,38.667,133.035,40.522,133.035,42.084z"/>
		<path style="fill:#005CA8;" d="M151.605,42.722l-0.153-2.816V35.97h3.848v12.369h-3.762l-4.375-6.734l0.153,2.817v3.917h-3.846
			V35.97h3.762L151.605,42.722z"/>
		<path style="fill:#005CA8;" d="M157.527,48.339V35.97h9.993v2.886h-5.976v1.77h5.056v2.887h-5.056v1.941h6.214v2.886H157.527z"/>
	</g>
	<g>
		<path style="fill:#0069B3;" d="M69.972,10.68V2.276h2.846c0.925,0,1.791,0.058,2.567,0.629c1.099,0.807,1.388,2.441,1.388,3.564
			c0,1.107-0.243,2.344-1.006,3.183c-0.763,0.866-1.851,1.027-2.949,1.027H69.972z M70.758,10.004h1.886
			c0.705,0,1.318-0.048,1.955-0.386c1.11-0.571,1.388-2.008,1.388-3.148c0-1.229-0.266-2.57-1.434-3.201
			c-0.498-0.268-1.214-0.314-1.908-0.314h-1.886V10.004z"/>
		<path style="fill:#0069B3;" d="M80.044,10.68V2.276h5.54v0.678h-4.753v3.033h4.29v0.678h-4.29v3.339h4.868v0.676H80.044z
			 M81.976,1.623L83.259,0h0.891l-1.584,1.623H81.976z"/>
		<path style="fill:#0069B3;" d="M88.798,10.68V2.276h3.041c2.164,0,2.719,1.085,2.719,2.346c0,1.88-1.653,2.347-3.192,2.347h-1.781
			v3.711H88.798z M91.389,6.292c1.467,0,2.381-0.305,2.381-1.726c0-1.053-0.67-1.612-2.151-1.612h-2.035v3.338H91.389z"/>
		<path style="fill:#0069B3;" d="M96.002,10.68l3.272-8.403h0.89l3.193,8.403h-0.81l-0.96-2.639h-3.793l-0.982,2.639H96.002z
			 M98.06,7.366h3.261l-1.63-4.412L98.06,7.366z"/>
		<path style="fill:#0069B3;" d="M106.976,6.862v3.817h-0.786V2.276h3.26c1.827,0,2.833,0.653,2.833,2.205
			c0,1.063-0.393,1.624-1.353,2.055c0.982,0.339,1.041,1.39,1.064,2.277c0.035,1.271,0.138,1.619,0.348,1.785v0.081h-0.868
			c-0.324-0.571-0.243-2.146-0.37-2.789c-0.185-0.91-0.867-1.028-1.654-1.028H106.976z M109.428,6.186
			c1.167,0,2.07-0.489,2.07-1.669c0-1.26-0.971-1.563-2.024-1.563h-2.498v3.231H109.428z"/>
		<path style="fill:#0069B3;" d="M114.677,2.276h6.06v0.678h-2.637v7.726h-0.787V2.954h-2.637V2.276z"/>
		<path style="fill:#0069B3;" d="M123.583,10.68V2.276h5.539v0.678h-4.753v3.033h4.29v0.678h-4.29v3.339h4.868v0.676H123.583z"/>
		<path style="fill:#0069B3;" d="M132.336,10.68V2.276h1.203l2.729,7.413h0.022l2.684-7.413h1.191v8.403h-0.787V3.188h-0.024
			l-2.729,7.492h-0.74l-2.741-7.492h-0.023v7.492H132.336z"/>
		<path style="fill:#0069B3;" d="M143.726,10.68V2.276h5.54v0.678h-4.754v3.033h4.291v0.678h-4.291v3.339h4.869v0.676H143.726z"/>
		<path style="fill:#0069B3;" d="M153.301,3.35h-0.024v7.33h-0.785V2.276h0.889l4.812,7.342h0.023V2.276h0.788v8.403h-0.914
			L153.301,3.35z"/>
		<path style="fill:#0069B3;" d="M161.834,2.276h6.06v0.678h-2.637v7.726h-0.786V2.954h-2.637V2.276z"/>
	</g>
	<line style="fill:none;stroke:#005CA8;stroke-width:3;" x1="171" y1="27.243" x2="171" y2="22.953"/>
	<line style="fill:none;stroke:#005CA8;stroke-width:3;" x1="98.739" y1="44.239" x2="98.739" y2="39.947"/>
	<path style="fill:#0069B3;stroke:#0069B3;" d="M163.151,20.227"/>
	<path style="fill:#0069B3;stroke:#0069B3;" d="M163.151,22.476"/>
</g>
</svg>
